# xmcd
#
# Track frame offsets: 
#        187
#        48947
#        85775
#        122642
#        146045
#
# Disc length: 2353 seconds
#
# Revision: 2
# Processed by: cddbd v1.5.2PL0 Copyright (c) Steve Scherf et al.
# Submitted via: ExactAudioCopy v0.95b3
#
DISCID=3c092f05
DTITLE=John Coltrane - Live At Birdland
DYEAR=1963
DGENRE=Jazz
TTITLE0=Afro Blue
TTITLE1=I Want To Talk About You
TTITLE2=The Promise
TTITLE3=Alabama
TTITLE4=Your Lady
EXTD=
EXTT0=
EXTT1=
EXTT2=
EXTT3=
EXTT4=
PLAYORDER=
